name C:\Users\u0101727\Documents\MyRepositories\upper-imu-dc\Results\main_tracking\Case_43\FLX01_orientations_groundFrame.mot
datacolumns 13
datarows 21
range 3.51000000 3.71000000
endheader 
time	radius_imu_[0][0]	radius_imu_[0][1]	radius_imu_[0][2]	radius_imu_[1][0]	radius_imu_[1][1]	radius_imu_[1][2]	radius_imu_[2][0]	radius_imu_[2][1]	radius_imu_[2][2]	radius_imu_x	radius_imu_y	radius_imu_z	
          3.51000000	          0.95410984	         -0.12310301	         -0.27298365	         -0.04886651	         -0.96338092	          0.26364609	         -0.29544286	         -0.23820757	         -0.92518683	         -2.86398565	         -0.27649312	          0.12831504	
          3.52000000	          0.95429445	         -0.12368821	         -0.27207230	         -0.04961870	         -0.96327763	          0.26388293	         -0.29472037	         -0.23832214	         -0.92538774	         -2.86380616	         -0.27554592	          0.12889364	
          3.53000000	          0.95447178	         -0.12427746	         -0.27118025	         -0.05036153	         -0.96316687	          0.26414634	         -0.29401927	         -0.23846317	         -0.92557441	         -2.86359617	         -0.27461902	          0.12947706	
          3.54000000	          0.95464198	         -0.12486855	         -0.27030820	         -0.05109245	         -0.96304862	          0.26443699	         -0.29333981	         -0.23863194	         -0.92574648	         -2.86335492	         -0.27371314	          0.13006305	
          3.55000000	          0.95480511	         -0.12545993	         -0.26945689	         -0.05180967	         -0.96292288	          0.26475515	         -0.29268237	         -0.23882909	         -0.92590372	         -2.86308209	         -0.27282902	          0.13064999	
          3.56000000	          0.95496108	         -0.12605069	         -0.26862716	         -0.05251216	         -0.96278975	          0.26510069	         -0.29204760	         -0.23905465	         -0.92604593	         -2.86277778	         -0.27196752	          0.13123697	
          3.57000000	          0.95510970	         -0.12664065	         -0.26782010	         -0.05319963	         -0.96264936	          0.26547318	         -0.29143654	         -0.23930808	         -0.92617298	         -2.86244238	         -0.27112976	          0.13182384	
          3.58000000	          0.95525053	         -0.12723036	         -0.26703719	         -0.05387252	         -0.96250187	          0.26587198	         -0.29085078	         -0.23958838	         -0.92628464	         -2.86207651	         -0.27031726	          0.13241126	
          3.59000000	          0.95538288	         -0.12782124	         -0.26628047	         -0.05453199	         -0.96234740	          0.26629634	         -0.29029265	         -0.23989416	         -0.92638058	         -2.86168080	         -0.26953211	          0.13300078	
          3.60000000	          0.95550575	         -0.12841552	         -0.26555265	         -0.05517982	         -0.96218605	          0.26674556	         -0.28976532	         -0.24022377	         -0.92646025	         -2.86125582	         -0.26877710	          0.13359485	
          3.61000000	          0.95561783	         -0.12901635	         -0.26485721	         -0.05581847	         -0.96201781	          0.26721908	         -0.28927299	         -0.24057539	         -0.92652287	         -2.86080189	         -0.26805584	          0.13419689	
          3.62000000	          0.95571743	         -0.12962779	         -0.26419847	         -0.05645100	         -0.96184255	          0.26771661	         -0.28882084	         -0.24094716	         -0.92656731	         -2.86031900	         -0.26737276	          0.13481134	
          3.63000000	          0.95580253	         -0.13025485	         -0.26358148	         -0.05708110	         -0.96166003	          0.26823820	         -0.28841510	         -0.24133723	         -0.92659218	         -2.85980670	         -0.26673310	          0.13544363	
          3.64000000	          0.95587079	         -0.13090348	         -0.26301198	         -0.05771309	         -0.96146982	          0.26878426	         -0.28806288	         -0.24174379	         -0.92659577	         -2.85926406	         -0.26614278	          0.13610022	
          3.65000000	          0.95591959	         -0.13158056	         -0.26249626	         -0.05835194	         -0.96127134	          0.26935565	         -0.28777210	         -0.24216518	         -0.92657609	         -2.85868967	         -0.26560827	          0.13678855	
          3.66000000	          0.95594607	         -0.13229388	         -0.26204092	         -0.05900330	         -0.96106382	          0.26995361	         -0.28755126	         -0.24259981	         -0.92653095	         -2.85808164	         -0.26513642	          0.13751706	
          3.67000000	          0.95594716	         -0.13305213	         -0.26165274	         -0.05967350	         -0.96084633	          0.27057976	         -0.28740928	         -0.24304622	         -0.92645801	         -2.85743765	         -0.26473420	          0.13829510	
          3.68000000	          0.95591969	         -0.13386479	         -0.26133842	         -0.06036961	         -0.96061778	          0.27123605	         -0.28735529	         -0.24350298	         -0.92635481	         -2.85675502	         -0.26440855	          0.13913291	
          3.69000000	          0.95586036	         -0.13474213	         -0.26110445	         -0.06109939	         -0.96037692	          0.27192469	         -0.28739840	         -0.24396871	         -0.92621889	         -2.85603081	         -0.26416616	          0.14004152	
          3.70000000	          0.95576584	         -0.13569510	         -0.26095689	         -0.06187132	         -0.96012236	          0.27264811	         -0.28754756	         -0.24444200	         -0.92604779	         -2.85526185	         -0.26401331	          0.14103270	
          3.71000000	          0.95563279	         -0.13673524	         -0.26090124	         -0.06269455	         -0.95985259	          0.27340885	         -0.28781135	         -0.24492137	         -0.92583916	         -2.85444485	         -0.26395566	          0.14211883	
